<svg xmlns="http://www.w3.org/2000/svg" width="96" height="65" fill="none" viewBox="0 0 96 65"><path fill="#8CB4EF" d="M78 8.66667H43.3333V39H8.66667V0H0V65H8.66667V52H86.6667V65H95.3333V26C95.3333 21.4029 93.5071 16.9941 90.2565 13.7435C87.0059 10.4929 82.5971 8.66667 78 8.66667ZM26 34.6667C29.4478 34.6667 32.7544 33.297 35.1924 30.8591C37.6304 28.4211 39 25.1145 39 21.6667C39 18.2189 37.6304 14.9123 35.1924 12.4743C32.7544 10.0363 29.4478 8.66667 26 8.66667C22.5522 8.66667 19.2456 10.0363 16.8076 12.4743C14.3696 14.9123 13 18.2189 13 21.6667C13 25.1145 14.3696 28.4211 16.8076 30.8591C19.2456 33.297 22.5522 34.6667 26 34.6667V34.6667Z"/></svg>