<svg width="336" height="212" viewBox="0 0 336 212" fill="none" xmlns="http://www.w3.org/2000/svg">
<path fill-rule="evenodd" clip-rule="evenodd" d="M140.651 28.1302H253.172C268.093 28.1302 282.403 34.0577 292.954 44.6085C303.505 55.1594 309.433 69.4695 309.433 84.3907V101.731C299.242 95.555 287.286 92 274.5 92C237.221 92 207 122.221 207 159.5C207 162.649 207.216 165.747 207.633 168.781H28.1302V210.977H0V0H28.1302V126.586H140.651V28.1302ZM114.227 100.162C106.314 108.075 95.5816 112.521 84.3907 112.521C73.1998 112.521 62.4672 108.075 54.5541 100.162C46.6409 92.249 42.1953 81.5165 42.1953 70.3256C42.1953 59.1347 46.6409 48.4021 54.5541 40.489C62.4672 32.5758 73.1998 28.1302 84.3907 28.1302C95.5816 28.1302 106.314 32.5758 114.227 40.489C122.14 48.4021 126.586 59.1347 126.586 70.3256C126.586 81.5165 122.14 92.249 114.227 100.162Z" fill="#8CB4EF"/>
<path d="M335.2 184.372L308.409 211.163L289.656 192.409L297.693 184.372L308.409 195.088L327.163 176.335L335.2 184.372ZM278.94 195.088C278.94 187.051 281.619 180.086 286.441 174.192L268.223 162.94V130.791H276.26V158.653L292.871 168.833C298.229 165.083 304.123 162.94 311.088 162.94C316.447 162.94 321.805 164.547 326.091 166.69C326.627 163.475 327.163 160.796 327.163 157.581C327.163 128.112 303.051 104 273.581 104C244.112 104 220 128.112 220 157.581C220 187.051 244.112 211.163 273.581 211.163C276.796 211.163 280.011 210.627 282.69 210.091C280.547 205.805 278.94 200.447 278.94 195.088Z" fill="#8CB4EF"/>
</svg>
